<mxfile host="Electron" modified="2023-08-02T21:55:11.583Z" agent="Mozilla/5.0 (Windows NT 10.0; Win64; x64) AppleWebKit/537.36 (KHTML, like Gecko) draw.io/21.6.5 Chrome/114.0.5735.243 Electron/25.3.1 Safari/537.36" etag="B-2ueedwSsFuJqVAHVkT" version="21.6.5" type="device" pages="4">
  <diagram name="4.1" id="0GqYgSECETZsc1vSDjG0">
    <mxGraphModel dx="1450" dy="671" grid="1" gridSize="10" guides="1" tooltips="1" connect="0" arrows="0" fold="1" page="0" pageScale="1" pageWidth="850" pageHeight="1100" math="0" shadow="0">
      <root>
        <mxCell id="0" />
        <mxCell id="1" parent="0" />
        <mxCell id="tPzn7yOaUopa4Tq6qF5q-1" value="4.1.1&#xa;&#xa;NHẬP THÔNG TIN NHÂN VIÊN" style="swimlane;fontStyle=1;childLayout=stackLayout;horizontal=1;startSize=20;fillColor=#bac8d3;horizontalStack=0;resizeParent=1;resizeParentMax=0;resizeLast=0;collapsible=0;marginBottom=0;swimlaneFillColor=#bac8d3;fontSize=12;whiteSpace=wrap;gradientColor=none;rounded=1;glass=0;verticalAlign=top;spacing=-1;fontFamily=Times New Roman;" parent="1" vertex="1">
          <mxGeometry x="80" y="40" width="120" height="80" as="geometry" />
        </mxCell>
        <mxCell id="tPzn7yOaUopa4Tq6qF5q-2" value="NHÂN VIÊN" style="html=1;dashed=0;whiteSpace=wrap;fontStyle=1;fillColor=#f5f5f5;strokeColor=#FF0000;fontColor=#333333;strokeWidth=2;fontFamily=Times New Roman;fontSize=15;" parent="1" vertex="1">
          <mxGeometry x="-240" y="120" width="160" height="80" as="geometry" />
        </mxCell>
        <mxCell id="tPzn7yOaUopa4Tq6qF5q-3" value="&amp;nbsp;NHÂN VIÊN QUẢN LÝ" style="html=1;dashed=0;whiteSpace=wrap;fontStyle=1;fillColor=#f5f5f5;fontColor=#333333;strokeColor=#4472C4;strokeWidth=2;fontFamily=Times New Roman;fontSize=15;" parent="1" vertex="1">
          <mxGeometry x="-240" y="280" width="160" height="80" as="geometry" />
        </mxCell>
        <mxCell id="tPzn7yOaUopa4Tq6qF5q-4" value="8&lt;span style=&quot;white-space: pre;&quot;&gt;&#x9;&lt;/span&gt;Danh sách thông tin nhân viên" style="html=1;dashed=0;whiteSpace=wrap;shape=mxgraph.dfd.dataStoreID;align=left;spacingLeft=8;points=[[0,0],[0.5,0],[1,0],[0,0.5],[1,0.5],[0,1],[0.5,1],[1,1]];fontSize=12;verticalAlign=middle;fillColor=#dae8fc;fontStyle=1;fontFamily=Times New Roman;strokeColor=#6c8ebf;" parent="1" vertex="1">
          <mxGeometry x="320" y="145" width="200" height="30" as="geometry" />
        </mxCell>
        <mxCell id="tPzn7yOaUopa4Tq6qF5q-5" value="9&lt;span style=&quot;white-space: pre;&quot;&gt;&#x9;&lt;/span&gt;Danh sách tài khoản nhân viên" style="html=1;dashed=0;whiteSpace=wrap;shape=mxgraph.dfd.dataStoreID;align=left;spacingLeft=8;points=[[0,0],[0.5,0],[1,0],[0,0.5],[1,0.5],[0,1],[0.5,1],[1,1]];fontSize=12;verticalAlign=middle;fillColor=#dae8fc;fontStyle=1;fontFamily=Times New Roman;strokeColor=#6c8ebf;" parent="1" vertex="1">
          <mxGeometry x="280" y="305" width="200" height="30" as="geometry" />
        </mxCell>
        <mxCell id="tPzn7yOaUopa4Tq6qF5q-6" value="" style="endArrow=classic;html=1;rounded=0;edgeStyle=orthogonalEdgeStyle;strokeColor=#FF0000;fontSize=15;jumpStyle=arc;fontFamily=Times New Roman;fontStyle=1" parent="1" source="tPzn7yOaUopa4Tq6qF5q-2" target="tPzn7yOaUopa4Tq6qF5q-1" edge="1">
          <mxGeometry width="50" height="50" relative="1" as="geometry">
            <mxPoint x="-150" y="60" as="sourcePoint" />
            <mxPoint x="10" y="60" as="targetPoint" />
            <Array as="points">
              <mxPoint x="-140" y="90" />
            </Array>
          </mxGeometry>
        </mxCell>
        <mxCell id="tPzn7yOaUopa4Tq6qF5q-7" value="" style="endArrow=classic;html=1;rounded=0;edgeStyle=orthogonalEdgeStyle;strokeColor=#4472C4;fontSize=15;jumpStyle=arc;fontFamily=Times New Roman;fontStyle=1;" parent="1" source="tPzn7yOaUopa4Tq6qF5q-11" target="tPzn7yOaUopa4Tq6qF5q-3" edge="1">
          <mxGeometry width="50" height="50" relative="1" as="geometry">
            <mxPoint x="-20" y="239.58" as="sourcePoint" />
            <mxPoint x="-180" y="239.58" as="targetPoint" />
            <Array as="points">
              <mxPoint x="-140" y="250" />
            </Array>
          </mxGeometry>
        </mxCell>
        <mxCell id="tPzn7yOaUopa4Tq6qF5q-8" value="" style="endArrow=classic;html=1;rounded=0;edgeStyle=orthogonalEdgeStyle;strokeColor=#00b0f0;fontSize=15;jumpStyle=arc;fontFamily=Times New Roman;fontStyle=1" parent="1" source="tPzn7yOaUopa4Tq6qF5q-4" target="tPzn7yOaUopa4Tq6qF5q-1" edge="1">
          <mxGeometry width="50" height="50" relative="1" as="geometry">
            <mxPoint x="430" y="79.57999999999998" as="sourcePoint" />
            <mxPoint x="270" y="79.57999999999998" as="targetPoint" />
            <Array as="points">
              <mxPoint x="420" y="70" />
            </Array>
          </mxGeometry>
        </mxCell>
        <mxCell id="tPzn7yOaUopa4Tq6qF5q-10" value="" style="endArrow=classic;html=1;rounded=0;edgeStyle=orthogonalEdgeStyle;strokeColor=#000000;fontSize=15;jumpStyle=arc;fontFamily=Times New Roman;fontStyle=1" parent="1" source="tPzn7yOaUopa4Tq6qF5q-1" target="tPzn7yOaUopa4Tq6qF5q-11" edge="1">
          <mxGeometry width="50" height="50" relative="1" as="geometry">
            <mxPoint x="40" y="159.58" as="sourcePoint" />
            <mxPoint x="200" y="159.58" as="targetPoint" />
            <Array as="points">
              <mxPoint x="170" y="170" />
              <mxPoint x="170" y="170" />
            </Array>
          </mxGeometry>
        </mxCell>
        <mxCell id="tPzn7yOaUopa4Tq6qF5q-11" value="4.1.2&#xa;&#xa;  PHÂN QUYỀN NHÂN VIÊN" style="swimlane;fontStyle=1;childLayout=stackLayout;horizontal=1;startSize=20;fillColor=#bac8d3;horizontalStack=0;resizeParent=1;resizeParentMax=0;resizeLast=0;collapsible=0;marginBottom=0;swimlaneFillColor=#bac8d3;fontSize=12;whiteSpace=wrap;gradientColor=none;rounded=1;glass=0;verticalAlign=top;spacing=-1;fontFamily=Times New Roman;" parent="1" vertex="1">
          <mxGeometry x="80" y="200" width="120" height="80" as="geometry" />
        </mxCell>
        <mxCell id="tPzn7yOaUopa4Tq6qF5q-12" value="4.1.3&#xa;&#xa;LƯU VÀO CƠ SỞ DỮ LIỆU" style="swimlane;fontStyle=1;childLayout=stackLayout;horizontal=1;startSize=20;fillColor=#bac8d3;horizontalStack=0;resizeParent=1;resizeParentMax=0;resizeLast=0;collapsible=0;marginBottom=0;swimlaneFillColor=#bac8d3;fontSize=12;whiteSpace=wrap;gradientColor=none;rounded=1;glass=0;verticalAlign=top;spacing=-1;fontFamily=Times New Roman;" parent="1" vertex="1">
          <mxGeometry x="80" y="360" width="120" height="80" as="geometry" />
        </mxCell>
        <mxCell id="tPzn7yOaUopa4Tq6qF5q-13" value="" style="endArrow=classic;html=1;rounded=0;edgeStyle=orthogonalEdgeStyle;strokeColor=#FF0000;fontSize=15;jumpStyle=arc;fontFamily=Times New Roman;fontStyle=1" parent="1" source="tPzn7yOaUopa4Tq6qF5q-1" target="tPzn7yOaUopa4Tq6qF5q-2" edge="1">
          <mxGeometry width="50" height="50" relative="1" as="geometry">
            <mxPoint x="40" y="80" as="sourcePoint" />
            <mxPoint x="-180" y="110" as="targetPoint" />
            <Array as="points">
              <mxPoint x="-180" y="70" />
            </Array>
          </mxGeometry>
        </mxCell>
        <mxCell id="tPzn7yOaUopa4Tq6qF5q-14" value="Thông tin nhân viên" style="text;html=1;align=center;verticalAlign=middle;resizable=0;points=[];autosize=1;strokeColor=none;fillColor=none;fontSize=12;fontStyle=1" parent="1" vertex="1">
          <mxGeometry x="-110" y="65" width="140" height="30" as="geometry" />
        </mxCell>
        <mxCell id="tPzn7yOaUopa4Tq6qF5q-15" value="&quot;Thông tin nhân viên không hợp lệ&quot;" style="text;html=1;align=center;verticalAlign=middle;resizable=0;points=[];autosize=1;strokeColor=none;fillColor=none;fontSize=12;fontStyle=1" parent="1" vertex="1">
          <mxGeometry x="-165" y="45" width="230" height="30" as="geometry" />
        </mxCell>
        <mxCell id="tPzn7yOaUopa4Tq6qF5q-16" value="" style="endArrow=classic;html=1;rounded=0;edgeStyle=orthogonalEdgeStyle;strokeColor=#000000;fontSize=15;jumpStyle=arc;fontFamily=Times New Roman;fontStyle=1" parent="1" source="tPzn7yOaUopa4Tq6qF5q-1" target="tPzn7yOaUopa4Tq6qF5q-11" edge="1">
          <mxGeometry width="50" height="50" relative="1" as="geometry">
            <mxPoint x="120" y="120" as="sourcePoint" />
            <mxPoint x="120" y="200" as="targetPoint" />
            <Array as="points">
              <mxPoint x="140" y="170" />
              <mxPoint x="140" y="170" />
            </Array>
          </mxGeometry>
        </mxCell>
        <mxCell id="tPzn7yOaUopa4Tq6qF5q-17" value="" style="endArrow=classic;html=1;rounded=0;edgeStyle=orthogonalEdgeStyle;strokeColor=#FF0000;fontSize=15;jumpStyle=arc;fontFamily=Times New Roman;fontStyle=1" parent="1" source="tPzn7yOaUopa4Tq6qF5q-11" target="tPzn7yOaUopa4Tq6qF5q-2" edge="1">
          <mxGeometry width="50" height="50" relative="1" as="geometry">
            <mxPoint x="150" y="160" as="sourcePoint" />
            <mxPoint x="-70" y="190" as="targetPoint" />
            <Array as="points">
              <mxPoint x="110" y="160" />
            </Array>
          </mxGeometry>
        </mxCell>
        <mxCell id="tPzn7yOaUopa4Tq6qF5q-18" value="&quot;Hợp lệ&quot;" style="text;html=1;align=center;verticalAlign=middle;resizable=0;points=[];autosize=1;strokeColor=none;fillColor=none;fontSize=12;fontStyle=1" parent="1" vertex="1">
          <mxGeometry x="128" y="120" width="70" height="30" as="geometry" />
        </mxCell>
        <mxCell id="tPzn7yOaUopa4Tq6qF5q-19" value="Thông tin nhân viên" style="text;html=1;align=center;verticalAlign=middle;resizable=0;points=[];autosize=1;strokeColor=none;fillColor=none;fontSize=12;fontStyle=1" parent="1" vertex="1">
          <mxGeometry x="100" y="170" width="140" height="30" as="geometry" />
        </mxCell>
        <mxCell id="tPzn7yOaUopa4Tq6qF5q-20" value="Tài khoản nhân viên" style="text;html=1;align=center;verticalAlign=middle;resizable=0;points=[];autosize=1;strokeColor=none;fillColor=none;fontSize=12;fontStyle=1" parent="1" vertex="1">
          <mxGeometry x="-58" y="135" width="140" height="30" as="geometry" />
        </mxCell>
        <mxCell id="tPzn7yOaUopa4Tq6qF5q-21" value="Thông tin nhân viên" style="text;html=1;align=center;verticalAlign=middle;resizable=0;points=[];autosize=1;strokeColor=none;fillColor=none;fontSize=12;fontStyle=1" parent="1" vertex="1">
          <mxGeometry x="-100" y="225" width="140" height="30" as="geometry" />
        </mxCell>
        <mxCell id="tPzn7yOaUopa4Tq6qF5q-22" value="" style="endArrow=classic;html=1;rounded=0;edgeStyle=orthogonalEdgeStyle;strokeColor=#4472C4;fontSize=15;jumpStyle=arc;fontFamily=Times New Roman;fontStyle=1;" parent="1" source="tPzn7yOaUopa4Tq6qF5q-3" target="tPzn7yOaUopa4Tq6qF5q-11" edge="1">
          <mxGeometry width="50" height="50" relative="1" as="geometry">
            <mxPoint x="-180" y="270" as="sourcePoint" />
            <mxPoint x="40" y="240" as="targetPoint" />
            <Array as="points">
              <mxPoint x="-180" y="230" />
            </Array>
          </mxGeometry>
        </mxCell>
        <mxCell id="tPzn7yOaUopa4Tq6qF5q-23" value="Thông tin tài khoản nhân viên" style="text;html=1;align=center;verticalAlign=middle;resizable=0;points=[];autosize=1;strokeColor=none;fillColor=none;fontSize=12;fontStyle=1" parent="1" vertex="1">
          <mxGeometry x="-135" y="205" width="190" height="30" as="geometry" />
        </mxCell>
        <mxCell id="tPzn7yOaUopa4Tq6qF5q-24" value="" style="endArrow=classic;html=1;rounded=0;edgeStyle=orthogonalEdgeStyle;strokeColor=#000000;fontSize=15;jumpStyle=arc;fontFamily=Times New Roman;fontStyle=1" parent="1" source="tPzn7yOaUopa4Tq6qF5q-11" target="tPzn7yOaUopa4Tq6qF5q-12" edge="1">
          <mxGeometry width="50" height="50" relative="1" as="geometry">
            <mxPoint x="162.58" y="290" as="sourcePoint" />
            <mxPoint x="162.58" y="370" as="targetPoint" />
            <Array as="points">
              <mxPoint x="160" y="320" />
              <mxPoint x="160" y="320" />
            </Array>
          </mxGeometry>
        </mxCell>
        <mxCell id="tPzn7yOaUopa4Tq6qF5q-25" value="" style="endArrow=classic;html=1;rounded=0;edgeStyle=orthogonalEdgeStyle;strokeColor=#000000;fontSize=15;jumpStyle=arc;fontFamily=Times New Roman;fontStyle=1" parent="1" source="tPzn7yOaUopa4Tq6qF5q-11" target="tPzn7yOaUopa4Tq6qF5q-12" edge="1">
          <mxGeometry width="50" height="50" relative="1" as="geometry">
            <mxPoint x="120" y="280" as="sourcePoint" />
            <mxPoint x="120" y="360" as="targetPoint" />
            <Array as="points">
              <mxPoint x="120" y="320" />
              <mxPoint x="120" y="320" />
            </Array>
          </mxGeometry>
        </mxCell>
        <mxCell id="tPzn7yOaUopa4Tq6qF5q-26" value="&quot;Tạo tài khoản thành công&quot;" style="text;html=1;align=center;verticalAlign=middle;resizable=0;points=[];autosize=1;strokeColor=none;fillColor=none;fontSize=12;fontStyle=1" parent="1" vertex="1">
          <mxGeometry x="63" y="280" width="180" height="30" as="geometry" />
        </mxCell>
        <mxCell id="tPzn7yOaUopa4Tq6qF5q-27" value="&quot;Phân quyền thành công&quot;" style="text;html=1;align=center;verticalAlign=middle;resizable=0;points=[];autosize=1;strokeColor=none;fillColor=none;fontSize=12;fontStyle=1" parent="1" vertex="1">
          <mxGeometry x="34" y="320" width="170" height="30" as="geometry" />
        </mxCell>
        <mxCell id="tPzn7yOaUopa4Tq6qF5q-28" value="" style="endArrow=classic;html=1;rounded=0;edgeStyle=orthogonalEdgeStyle;strokeColor=#00b0f0;fontSize=15;jumpStyle=arc;fontFamily=Times New Roman;fontStyle=1" parent="1" source="tPzn7yOaUopa4Tq6qF5q-5" target="tPzn7yOaUopa4Tq6qF5q-1" edge="1">
          <mxGeometry width="50" height="50" relative="1" as="geometry">
            <mxPoint x="430" y="155" as="sourcePoint" />
            <mxPoint x="210" y="90" as="targetPoint" />
            <Array as="points">
              <mxPoint x="310" y="90" />
            </Array>
          </mxGeometry>
        </mxCell>
        <mxCell id="tPzn7yOaUopa4Tq6qF5q-29" value="" style="endArrow=classic;html=1;rounded=0;edgeStyle=orthogonalEdgeStyle;strokeColor=#00b0f0;fontSize=15;jumpStyle=arc;fontFamily=Times New Roman;fontStyle=1" parent="1" source="tPzn7yOaUopa4Tq6qF5q-12" target="tPzn7yOaUopa4Tq6qF5q-5" edge="1">
          <mxGeometry width="50" height="50" relative="1" as="geometry">
            <mxPoint x="340" y="605" as="sourcePoint" />
            <mxPoint x="230" y="390" as="targetPoint" />
            <Array as="points">
              <mxPoint x="380" y="390" />
            </Array>
          </mxGeometry>
        </mxCell>
        <mxCell id="tPzn7yOaUopa4Tq6qF5q-30" value="" style="endArrow=classic;html=1;rounded=0;edgeStyle=orthogonalEdgeStyle;strokeColor=#00b0f0;fontSize=15;jumpStyle=arc;fontFamily=Times New Roman;fontStyle=1" parent="1" source="tPzn7yOaUopa4Tq6qF5q-12" target="tPzn7yOaUopa4Tq6qF5q-4" edge="1">
          <mxGeometry width="50" height="50" relative="1" as="geometry">
            <mxPoint x="210" y="400" as="sourcePoint" />
            <mxPoint x="390" y="345" as="targetPoint" />
            <Array as="points">
              <mxPoint x="490" y="410" />
            </Array>
          </mxGeometry>
        </mxCell>
      </root>
    </mxGraphModel>
  </diagram>
  <diagram id="m2SbqxdtbeR3ilzCDyhh" name="4.2">
    <mxGraphModel dx="1275" dy="559" grid="1" gridSize="10" guides="1" tooltips="1" connect="0" arrows="0" fold="1" page="0" pageScale="1" pageWidth="850" pageHeight="1100" math="0" shadow="0">
      <root>
        <mxCell id="0" />
        <mxCell id="1" parent="0" />
        <mxCell id="CXcGE4LGmdR_tq4qUQ1R-1" value="4.2.1&#xa;&#xa;TÌM KIẾM NHÂN VIÊN CẦN CHỈNH SỬA" style="swimlane;fontStyle=1;childLayout=stackLayout;horizontal=1;startSize=20;fillColor=#bac8d3;horizontalStack=0;resizeParent=1;resizeParentMax=0;resizeLast=0;collapsible=0;marginBottom=0;swimlaneFillColor=#bac8d3;fontSize=12;whiteSpace=wrap;gradientColor=none;rounded=1;glass=0;verticalAlign=top;spacing=-1;fontFamily=Times New Roman;" vertex="1" parent="1">
          <mxGeometry x="80" y="40" width="120" height="80" as="geometry" />
        </mxCell>
        <mxCell id="CXcGE4LGmdR_tq4qUQ1R-2" value="&amp;nbsp;NHÂN VIÊN QUẢN LÝ" style="html=1;dashed=0;whiteSpace=wrap;fontStyle=1;fillColor=#f5f5f5;fontColor=#333333;strokeColor=#4472C4;strokeWidth=2;fontFamily=Times New Roman;fontSize=15;" vertex="1" parent="1">
          <mxGeometry x="-240" y="120" width="160" height="80" as="geometry" />
        </mxCell>
        <mxCell id="CXcGE4LGmdR_tq4qUQ1R-3" value="8&lt;span style=&quot;white-space: pre;&quot;&gt;&#x9;&lt;/span&gt;Danh sách thông tin nhân viên" style="html=1;dashed=0;whiteSpace=wrap;shape=mxgraph.dfd.dataStoreID;align=left;spacingLeft=8;points=[[0,0],[0.5,0],[1,0],[0,0.5],[1,0.5],[0,1],[0.5,1],[1,1]];fontSize=12;verticalAlign=middle;fillColor=#dae8fc;fontStyle=1;fontFamily=Times New Roman;strokeColor=#6c8ebf;" vertex="1" parent="1">
          <mxGeometry x="320" y="65" width="200" height="30" as="geometry" />
        </mxCell>
        <mxCell id="CXcGE4LGmdR_tq4qUQ1R-4" value="9&lt;span style=&quot;white-space: pre;&quot;&gt;&#x9;&lt;/span&gt;Danh sách tài khoản nhân viên" style="html=1;dashed=0;whiteSpace=wrap;shape=mxgraph.dfd.dataStoreID;align=left;spacingLeft=8;points=[[0,0],[0.5,0],[1,0],[0,0.5],[1,0.5],[0,1],[0.5,1],[1,1]];fontSize=12;verticalAlign=middle;fillColor=#dae8fc;fontStyle=1;fontFamily=Times New Roman;strokeColor=#6c8ebf;" vertex="1" parent="1">
          <mxGeometry x="280" y="205" width="200" height="30" as="geometry" />
        </mxCell>
        <mxCell id="CXcGE4LGmdR_tq4qUQ1R-5" value="" style="endArrow=classic;html=1;rounded=0;edgeStyle=orthogonalEdgeStyle;strokeColor=#4472C4;fontSize=15;jumpStyle=arc;fontFamily=Times New Roman;fontStyle=1;" edge="1" parent="1" target="CXcGE4LGmdR_tq4qUQ1R-1" source="CXcGE4LGmdR_tq4qUQ1R-2">
          <mxGeometry width="50" height="50" relative="1" as="geometry">
            <mxPoint x="-150" y="110" as="sourcePoint" />
            <mxPoint x="70" y="80" as="targetPoint" />
            <Array as="points">
              <mxPoint x="-140" y="90" />
            </Array>
          </mxGeometry>
        </mxCell>
        <mxCell id="CXcGE4LGmdR_tq4qUQ1R-6" value="" style="endArrow=classic;html=1;rounded=0;edgeStyle=orthogonalEdgeStyle;strokeColor=#000000;fontSize=15;jumpStyle=arc;fontFamily=Times New Roman;fontStyle=1" edge="1" parent="1" source="CXcGE4LGmdR_tq4qUQ1R-1" target="CXcGE4LGmdR_tq4qUQ1R-9">
          <mxGeometry width="50" height="50" relative="1" as="geometry">
            <mxPoint x="150" y="130" as="sourcePoint" />
            <mxPoint x="150" y="210" as="targetPoint" />
            <Array as="points">
              <mxPoint x="160" y="160" />
              <mxPoint x="160" y="160" />
            </Array>
          </mxGeometry>
        </mxCell>
        <mxCell id="CXcGE4LGmdR_tq4qUQ1R-7" value="Thông tin tra cứu nhân viên" style="text;html=1;align=center;verticalAlign=middle;resizable=0;points=[];autosize=1;strokeColor=none;fillColor=none;fontSize=12;fontStyle=1" vertex="1" parent="1">
          <mxGeometry x="-120" y="65" width="180" height="30" as="geometry" />
        </mxCell>
        <mxCell id="CXcGE4LGmdR_tq4qUQ1R-8" value="" style="endArrow=classic;html=1;rounded=0;edgeStyle=orthogonalEdgeStyle;strokeColor=#00b0f0;fontSize=15;jumpStyle=arc;fontFamily=Times New Roman;fontStyle=1" edge="1" parent="1" source="CXcGE4LGmdR_tq4qUQ1R-3" target="CXcGE4LGmdR_tq4qUQ1R-1">
          <mxGeometry width="50" height="50" relative="1" as="geometry">
            <mxPoint x="340" y="280" as="sourcePoint" />
            <mxPoint x="230" y="65" as="targetPoint" />
            <Array as="points" />
          </mxGeometry>
        </mxCell>
        <mxCell id="CXcGE4LGmdR_tq4qUQ1R-9" value="4.2.2&#xa;&#xa;CẬP NHẬT THÔNG TIN NHÂN VIÊN" style="swimlane;fontStyle=1;childLayout=stackLayout;horizontal=1;startSize=20;fillColor=#bac8d3;horizontalStack=0;resizeParent=1;resizeParentMax=0;resizeLast=0;collapsible=0;marginBottom=0;swimlaneFillColor=#bac8d3;fontSize=12;whiteSpace=wrap;gradientColor=none;rounded=1;glass=0;verticalAlign=top;spacing=-1;fontFamily=Times New Roman;" vertex="1" parent="1">
          <mxGeometry x="80" y="200" width="120" height="80" as="geometry" />
        </mxCell>
        <mxCell id="CXcGE4LGmdR_tq4qUQ1R-11" value="" style="endArrow=classic;html=1;rounded=0;edgeStyle=orthogonalEdgeStyle;strokeColor=#000000;fontSize=15;jumpStyle=arc;fontFamily=Times New Roman;fontStyle=1" edge="1" parent="1" source="CXcGE4LGmdR_tq4qUQ1R-1" target="CXcGE4LGmdR_tq4qUQ1R-9">
          <mxGeometry width="50" height="50" relative="1" as="geometry">
            <mxPoint x="120" y="120" as="sourcePoint" />
            <mxPoint x="120" y="200" as="targetPoint" />
            <Array as="points">
              <mxPoint x="120" y="160" />
              <mxPoint x="120" y="160" />
            </Array>
          </mxGeometry>
        </mxCell>
        <mxCell id="CXcGE4LGmdR_tq4qUQ1R-12" value="" style="endArrow=classic;html=1;rounded=0;edgeStyle=orthogonalEdgeStyle;strokeColor=#4472C4;fontSize=15;jumpStyle=arc;fontFamily=Times New Roman;fontStyle=1;" edge="1" parent="1" source="CXcGE4LGmdR_tq4qUQ1R-1" target="CXcGE4LGmdR_tq4qUQ1R-2">
          <mxGeometry width="50" height="50" relative="1" as="geometry">
            <mxPoint x="40" y="80" as="sourcePoint" />
            <mxPoint x="-180" y="110" as="targetPoint" />
            <Array as="points">
              <mxPoint x="-180" y="70" />
            </Array>
          </mxGeometry>
        </mxCell>
        <mxCell id="CXcGE4LGmdR_tq4qUQ1R-13" value="&quot;Không tìm thấy&quot;" style="text;html=1;align=center;verticalAlign=middle;resizable=0;points=[];autosize=1;strokeColor=none;fillColor=none;fontSize=12;fontStyle=1" vertex="1" parent="1">
          <mxGeometry x="-110" y="45" width="120" height="30" as="geometry" />
        </mxCell>
        <mxCell id="CXcGE4LGmdR_tq4qUQ1R-14" value="&quot;Tìm thấy&quot;" style="text;html=1;align=center;verticalAlign=middle;resizable=0;points=[];autosize=1;strokeColor=none;fillColor=none;fontSize=12;fontStyle=1" vertex="1" parent="1">
          <mxGeometry x="122" y="120" width="80" height="30" as="geometry" />
        </mxCell>
        <mxCell id="CXcGE4LGmdR_tq4qUQ1R-15" value="Thông tin tra cứu nhân viên" style="text;html=1;align=center;verticalAlign=middle;resizable=0;points=[];autosize=1;strokeColor=none;fillColor=none;fontSize=12;fontStyle=1" vertex="1" parent="1">
          <mxGeometry x="34" y="170" width="180" height="30" as="geometry" />
        </mxCell>
        <mxCell id="CXcGE4LGmdR_tq4qUQ1R-16" value="" style="endArrow=classic;html=1;rounded=0;edgeStyle=orthogonalEdgeStyle;strokeColor=#4472C4;fontSize=15;jumpStyle=arc;fontFamily=Times New Roman;fontStyle=1;" edge="1" parent="1" source="CXcGE4LGmdR_tq4qUQ1R-2" target="CXcGE4LGmdR_tq4qUQ1R-9">
          <mxGeometry width="50" height="50" relative="1" as="geometry">
            <mxPoint x="-160" y="280" as="sourcePoint" />
            <mxPoint x="60" y="250" as="targetPoint" />
            <Array as="points">
              <mxPoint x="-140" y="230" />
            </Array>
          </mxGeometry>
        </mxCell>
        <mxCell id="CXcGE4LGmdR_tq4qUQ1R-17" value="" style="endArrow=classic;html=1;rounded=0;edgeStyle=orthogonalEdgeStyle;strokeColor=#4472C4;fontSize=15;jumpStyle=arc;fontFamily=Times New Roman;fontStyle=1;" edge="1" parent="1" source="CXcGE4LGmdR_tq4qUQ1R-9" target="CXcGE4LGmdR_tq4qUQ1R-2">
          <mxGeometry width="50" height="50" relative="1" as="geometry">
            <mxPoint x="90" y="240" as="sourcePoint" />
            <mxPoint x="-130" y="210" as="targetPoint" />
            <Array as="points">
              <mxPoint x="-180" y="250" />
            </Array>
          </mxGeometry>
        </mxCell>
        <mxCell id="CXcGE4LGmdR_tq4qUQ1R-18" value="Kết quả tra cứu nhân viên" style="text;html=1;align=center;verticalAlign=middle;resizable=0;points=[];autosize=1;strokeColor=none;fillColor=none;fontSize=12;fontStyle=1" vertex="1" parent="1">
          <mxGeometry x="-125" y="225" width="170" height="30" as="geometry" />
        </mxCell>
        <mxCell id="CXcGE4LGmdR_tq4qUQ1R-19" value="Thông tin mới của nhân viên" style="text;html=1;align=center;verticalAlign=middle;resizable=0;points=[];autosize=1;strokeColor=none;fillColor=none;fontSize=12;fontStyle=1" vertex="1" parent="1">
          <mxGeometry x="-130" y="205" width="190" height="30" as="geometry" />
        </mxCell>
        <mxCell id="CXcGE4LGmdR_tq4qUQ1R-20" value="" style="endArrow=classic;html=1;rounded=0;edgeStyle=orthogonalEdgeStyle;strokeColor=#00b0f0;fontSize=15;jumpStyle=arc;fontFamily=Times New Roman;fontStyle=1" edge="1" parent="1" source="CXcGE4LGmdR_tq4qUQ1R-4" target="CXcGE4LGmdR_tq4qUQ1R-1">
          <mxGeometry width="50" height="50" relative="1" as="geometry">
            <mxPoint x="330" y="90" as="sourcePoint" />
            <mxPoint x="210" y="90" as="targetPoint" />
            <Array as="points">
              <mxPoint x="380" y="100" />
            </Array>
          </mxGeometry>
        </mxCell>
        <mxCell id="CXcGE4LGmdR_tq4qUQ1R-21" value="" style="endArrow=classic;html=1;rounded=0;edgeStyle=orthogonalEdgeStyle;strokeColor=#00b0f0;fontSize=15;jumpStyle=arc;fontFamily=Times New Roman;fontStyle=1" edge="1" parent="1" source="CXcGE4LGmdR_tq4qUQ1R-4" target="CXcGE4LGmdR_tq4qUQ1R-9">
          <mxGeometry width="50" height="50" relative="1" as="geometry">
            <mxPoint x="330" y="239.66" as="sourcePoint" />
            <mxPoint x="210" y="239.66" as="targetPoint" />
            <Array as="points">
              <mxPoint x="240" y="210" />
              <mxPoint x="240" y="210" />
            </Array>
          </mxGeometry>
        </mxCell>
        <mxCell id="CXcGE4LGmdR_tq4qUQ1R-22" value="" style="endArrow=classic;html=1;rounded=0;edgeStyle=orthogonalEdgeStyle;strokeColor=#00b0f0;fontSize=15;jumpStyle=arc;fontFamily=Times New Roman;fontStyle=1" edge="1" parent="1" source="CXcGE4LGmdR_tq4qUQ1R-9" target="CXcGE4LGmdR_tq4qUQ1R-4">
          <mxGeometry width="50" height="50" relative="1" as="geometry">
            <mxPoint x="210" y="240" as="sourcePoint" />
            <mxPoint x="290" y="240" as="targetPoint" />
            <Array as="points">
              <mxPoint x="240" y="230" />
              <mxPoint x="240" y="230" />
            </Array>
          </mxGeometry>
        </mxCell>
        <mxCell id="CXcGE4LGmdR_tq4qUQ1R-23" value="" style="endArrow=classic;html=1;rounded=0;edgeStyle=orthogonalEdgeStyle;strokeColor=#00b0f0;fontSize=15;jumpStyle=arc;fontFamily=Times New Roman;fontStyle=1" edge="1" parent="1" source="CXcGE4LGmdR_tq4qUQ1R-9" target="CXcGE4LGmdR_tq4qUQ1R-3">
          <mxGeometry width="50" height="50" relative="1" as="geometry">
            <mxPoint x="250" y="270" as="sourcePoint" />
            <mxPoint x="330" y="270" as="targetPoint" />
            <Array as="points">
              <mxPoint x="490" y="250" />
            </Array>
          </mxGeometry>
        </mxCell>
        <mxCell id="CXcGE4LGmdR_tq4qUQ1R-24" value="" style="endArrow=classic;html=1;rounded=0;edgeStyle=orthogonalEdgeStyle;strokeColor=#00b0f0;fontSize=15;jumpStyle=arc;fontFamily=Times New Roman;fontStyle=1" edge="1" parent="1" source="CXcGE4LGmdR_tq4qUQ1R-3" target="CXcGE4LGmdR_tq4qUQ1R-9">
          <mxGeometry width="50" height="50" relative="1" as="geometry">
            <mxPoint x="500" y="105" as="sourcePoint" />
            <mxPoint x="210" y="260" as="targetPoint" />
            <Array as="points">
              <mxPoint x="510" y="270" />
            </Array>
          </mxGeometry>
        </mxCell>
      </root>
    </mxGraphModel>
  </diagram>
  <diagram id="zX0VW9crwosQ5ja-MrKP" name="4.3">
    <mxGraphModel dx="1450" dy="671" grid="1" gridSize="10" guides="1" tooltips="1" connect="0" arrows="0" fold="1" page="0" pageScale="1" pageWidth="850" pageHeight="1100" math="0" shadow="0">
      <root>
        <mxCell id="0" />
        <mxCell id="1" parent="0" />
        <mxCell id="wDMfF3KUNV2mzz2cF4fs-1" value="4.3.1&#xa;&#xa;TÌM KIẾM NHÂN VIÊN CẦN XÓA" style="swimlane;fontStyle=1;childLayout=stackLayout;horizontal=1;startSize=20;fillColor=#bac8d3;horizontalStack=0;resizeParent=1;resizeParentMax=0;resizeLast=0;collapsible=0;marginBottom=0;swimlaneFillColor=#bac8d3;fontSize=12;whiteSpace=wrap;gradientColor=none;rounded=1;glass=0;verticalAlign=top;spacing=-1;fontFamily=Times New Roman;" parent="1" vertex="1">
          <mxGeometry x="80" y="40" width="120" height="80" as="geometry" />
        </mxCell>
        <mxCell id="wDMfF3KUNV2mzz2cF4fs-2" value="&amp;nbsp;NHÂN VIÊN QUẢN LÝ" style="html=1;dashed=0;whiteSpace=wrap;fontStyle=1;fillColor=#f5f5f5;fontColor=#333333;strokeColor=#4472C4;strokeWidth=2;fontFamily=Times New Roman;fontSize=15;" parent="1" vertex="1">
          <mxGeometry x="-240" y="120" width="160" height="80" as="geometry" />
        </mxCell>
        <mxCell id="wDMfF3KUNV2mzz2cF4fs-3" value="8&lt;span style=&quot;white-space: pre;&quot;&gt;&#x9;&lt;/span&gt;Danh sách thông tin nhân viên" style="html=1;dashed=0;whiteSpace=wrap;shape=mxgraph.dfd.dataStoreID;align=left;spacingLeft=8;points=[[0,0],[0.5,0],[1,0],[0,0.5],[1,0.5],[0,1],[0.5,1],[1,1]];fontSize=12;verticalAlign=middle;fillColor=#dae8fc;fontStyle=1;fontFamily=Times New Roman;strokeColor=#6c8ebf;" parent="1" vertex="1">
          <mxGeometry x="320" y="65" width="200" height="30" as="geometry" />
        </mxCell>
        <mxCell id="wDMfF3KUNV2mzz2cF4fs-4" value="9&lt;span style=&quot;white-space: pre;&quot;&gt;&#x9;&lt;/span&gt;Danh sách tài khoản nhân viên" style="html=1;dashed=0;whiteSpace=wrap;shape=mxgraph.dfd.dataStoreID;align=left;spacingLeft=8;points=[[0,0],[0.5,0],[1,0],[0,0.5],[1,0.5],[0,1],[0.5,1],[1,1]];fontSize=12;verticalAlign=middle;fillColor=#dae8fc;fontStyle=1;fontFamily=Times New Roman;strokeColor=#6c8ebf;" parent="1" vertex="1">
          <mxGeometry x="280" y="205" width="200" height="30" as="geometry" />
        </mxCell>
        <mxCell id="wDMfF3KUNV2mzz2cF4fs-5" value="" style="endArrow=classic;html=1;rounded=0;edgeStyle=orthogonalEdgeStyle;strokeColor=#4472C4;fontSize=15;jumpStyle=arc;fontFamily=Times New Roman;fontStyle=1;" parent="1" source="wDMfF3KUNV2mzz2cF4fs-2" target="wDMfF3KUNV2mzz2cF4fs-1" edge="1">
          <mxGeometry width="50" height="50" relative="1" as="geometry">
            <mxPoint x="-150" y="110" as="sourcePoint" />
            <mxPoint x="70" y="80" as="targetPoint" />
            <Array as="points">
              <mxPoint x="-140" y="90" />
            </Array>
          </mxGeometry>
        </mxCell>
        <mxCell id="wDMfF3KUNV2mzz2cF4fs-6" value="" style="endArrow=classic;html=1;rounded=0;edgeStyle=orthogonalEdgeStyle;strokeColor=#000000;fontSize=15;jumpStyle=arc;fontFamily=Times New Roman;fontStyle=1" parent="1" source="wDMfF3KUNV2mzz2cF4fs-1" target="wDMfF3KUNV2mzz2cF4fs-9" edge="1">
          <mxGeometry width="50" height="50" relative="1" as="geometry">
            <mxPoint x="150" y="130" as="sourcePoint" />
            <mxPoint x="150" y="210" as="targetPoint" />
            <Array as="points">
              <mxPoint x="160" y="160" />
              <mxPoint x="160" y="160" />
            </Array>
          </mxGeometry>
        </mxCell>
        <mxCell id="wDMfF3KUNV2mzz2cF4fs-7" value="Thông tin tra cứu nhân viên" style="text;html=1;align=center;verticalAlign=middle;resizable=0;points=[];autosize=1;strokeColor=none;fillColor=none;fontSize=12;fontStyle=1" parent="1" vertex="1">
          <mxGeometry x="-120" y="65" width="180" height="30" as="geometry" />
        </mxCell>
        <mxCell id="wDMfF3KUNV2mzz2cF4fs-8" value="" style="endArrow=classic;html=1;rounded=0;edgeStyle=orthogonalEdgeStyle;strokeColor=#00b0f0;fontSize=15;jumpStyle=arc;fontFamily=Times New Roman;fontStyle=1" parent="1" source="wDMfF3KUNV2mzz2cF4fs-3" target="wDMfF3KUNV2mzz2cF4fs-1" edge="1">
          <mxGeometry width="50" height="50" relative="1" as="geometry">
            <mxPoint x="340" y="280" as="sourcePoint" />
            <mxPoint x="230" y="65" as="targetPoint" />
            <Array as="points" />
          </mxGeometry>
        </mxCell>
        <mxCell id="wDMfF3KUNV2mzz2cF4fs-9" value="4.3.2&#xa;&#xa;XÁC NHẬN XÓA NHÂN VIÊN" style="swimlane;fontStyle=1;childLayout=stackLayout;horizontal=1;startSize=20;fillColor=#bac8d3;horizontalStack=0;resizeParent=1;resizeParentMax=0;resizeLast=0;collapsible=0;marginBottom=0;swimlaneFillColor=#bac8d3;fontSize=12;whiteSpace=wrap;gradientColor=none;rounded=1;glass=0;verticalAlign=top;spacing=-1;fontFamily=Times New Roman;" parent="1" vertex="1">
          <mxGeometry x="80" y="200" width="120" height="80" as="geometry" />
        </mxCell>
        <mxCell id="wDMfF3KUNV2mzz2cF4fs-10" value="" style="endArrow=classic;html=1;rounded=0;edgeStyle=orthogonalEdgeStyle;strokeColor=#000000;fontSize=15;jumpStyle=arc;fontFamily=Times New Roman;fontStyle=1" parent="1" source="wDMfF3KUNV2mzz2cF4fs-1" target="wDMfF3KUNV2mzz2cF4fs-9" edge="1">
          <mxGeometry width="50" height="50" relative="1" as="geometry">
            <mxPoint x="120" y="120" as="sourcePoint" />
            <mxPoint x="120" y="200" as="targetPoint" />
            <Array as="points">
              <mxPoint x="120" y="160" />
              <mxPoint x="120" y="160" />
            </Array>
          </mxGeometry>
        </mxCell>
        <mxCell id="wDMfF3KUNV2mzz2cF4fs-11" value="" style="endArrow=classic;html=1;rounded=0;edgeStyle=orthogonalEdgeStyle;strokeColor=#4472C4;fontSize=15;jumpStyle=arc;fontFamily=Times New Roman;fontStyle=1;" parent="1" source="wDMfF3KUNV2mzz2cF4fs-1" target="wDMfF3KUNV2mzz2cF4fs-2" edge="1">
          <mxGeometry width="50" height="50" relative="1" as="geometry">
            <mxPoint x="40" y="80" as="sourcePoint" />
            <mxPoint x="-180" y="110" as="targetPoint" />
            <Array as="points">
              <mxPoint x="-180" y="70" />
            </Array>
          </mxGeometry>
        </mxCell>
        <mxCell id="wDMfF3KUNV2mzz2cF4fs-12" value="&quot;Không tìm thấy&quot;" style="text;html=1;align=center;verticalAlign=middle;resizable=0;points=[];autosize=1;strokeColor=none;fillColor=none;fontSize=12;fontStyle=1" parent="1" vertex="1">
          <mxGeometry x="-110" y="45" width="120" height="30" as="geometry" />
        </mxCell>
        <mxCell id="wDMfF3KUNV2mzz2cF4fs-13" value="&quot;Tìm thấy&quot;" style="text;html=1;align=center;verticalAlign=middle;resizable=0;points=[];autosize=1;strokeColor=none;fillColor=none;fontSize=12;fontStyle=1" parent="1" vertex="1">
          <mxGeometry x="122" y="120" width="80" height="30" as="geometry" />
        </mxCell>
        <mxCell id="wDMfF3KUNV2mzz2cF4fs-14" value="Thông tin tra cứu nhân viên" style="text;html=1;align=center;verticalAlign=middle;resizable=0;points=[];autosize=1;strokeColor=none;fillColor=none;fontSize=12;fontStyle=1" parent="1" vertex="1">
          <mxGeometry x="34" y="170" width="180" height="30" as="geometry" />
        </mxCell>
        <mxCell id="wDMfF3KUNV2mzz2cF4fs-15" value="" style="endArrow=classic;html=1;rounded=0;edgeStyle=orthogonalEdgeStyle;strokeColor=#4472C4;fontSize=15;jumpStyle=arc;fontFamily=Times New Roman;fontStyle=1;" parent="1" source="wDMfF3KUNV2mzz2cF4fs-2" target="wDMfF3KUNV2mzz2cF4fs-9" edge="1">
          <mxGeometry width="50" height="50" relative="1" as="geometry">
            <mxPoint x="-160" y="280" as="sourcePoint" />
            <mxPoint x="60" y="250" as="targetPoint" />
            <Array as="points">
              <mxPoint x="-140" y="230" />
            </Array>
          </mxGeometry>
        </mxCell>
        <mxCell id="wDMfF3KUNV2mzz2cF4fs-16" value="" style="endArrow=classic;html=1;rounded=0;edgeStyle=orthogonalEdgeStyle;strokeColor=#4472C4;fontSize=15;jumpStyle=arc;fontFamily=Times New Roman;fontStyle=1;" parent="1" source="wDMfF3KUNV2mzz2cF4fs-9" target="wDMfF3KUNV2mzz2cF4fs-2" edge="1">
          <mxGeometry width="50" height="50" relative="1" as="geometry">
            <mxPoint x="90" y="240" as="sourcePoint" />
            <mxPoint x="-130" y="210" as="targetPoint" />
            <Array as="points">
              <mxPoint x="-180" y="250" />
            </Array>
          </mxGeometry>
        </mxCell>
        <mxCell id="wDMfF3KUNV2mzz2cF4fs-17" value="Kết quả tra cứu nhân viên" style="text;html=1;align=center;verticalAlign=middle;resizable=0;points=[];autosize=1;strokeColor=none;fillColor=none;fontSize=12;fontStyle=1" parent="1" vertex="1">
          <mxGeometry x="-125" y="225" width="170" height="30" as="geometry" />
        </mxCell>
        <mxCell id="wDMfF3KUNV2mzz2cF4fs-18" value="Danh sách sau khi xóa" style="text;html=1;align=center;verticalAlign=middle;resizable=0;points=[];autosize=1;strokeColor=none;fillColor=none;fontSize=12;fontStyle=1" parent="1" vertex="1">
          <mxGeometry x="-110" y="205" width="150" height="30" as="geometry" />
        </mxCell>
        <mxCell id="wDMfF3KUNV2mzz2cF4fs-19" value="" style="endArrow=classic;html=1;rounded=0;edgeStyle=orthogonalEdgeStyle;strokeColor=#00b0f0;fontSize=15;jumpStyle=arc;fontFamily=Times New Roman;fontStyle=1" parent="1" source="wDMfF3KUNV2mzz2cF4fs-4" target="wDMfF3KUNV2mzz2cF4fs-1" edge="1">
          <mxGeometry width="50" height="50" relative="1" as="geometry">
            <mxPoint x="330" y="90" as="sourcePoint" />
            <mxPoint x="210" y="90" as="targetPoint" />
            <Array as="points">
              <mxPoint x="380" y="100" />
            </Array>
          </mxGeometry>
        </mxCell>
        <mxCell id="wDMfF3KUNV2mzz2cF4fs-20" value="" style="endArrow=classic;html=1;rounded=0;edgeStyle=orthogonalEdgeStyle;strokeColor=#00b0f0;fontSize=15;jumpStyle=arc;fontFamily=Times New Roman;fontStyle=1" parent="1" source="wDMfF3KUNV2mzz2cF4fs-4" target="wDMfF3KUNV2mzz2cF4fs-9" edge="1">
          <mxGeometry width="50" height="50" relative="1" as="geometry">
            <mxPoint x="330" y="239.66" as="sourcePoint" />
            <mxPoint x="210" y="239.66" as="targetPoint" />
            <Array as="points">
              <mxPoint x="240" y="210" />
              <mxPoint x="240" y="210" />
            </Array>
          </mxGeometry>
        </mxCell>
        <mxCell id="wDMfF3KUNV2mzz2cF4fs-21" value="" style="endArrow=classic;html=1;rounded=0;edgeStyle=orthogonalEdgeStyle;strokeColor=#00b0f0;fontSize=15;jumpStyle=arc;fontFamily=Times New Roman;fontStyle=1" parent="1" source="wDMfF3KUNV2mzz2cF4fs-9" target="wDMfF3KUNV2mzz2cF4fs-4" edge="1">
          <mxGeometry width="50" height="50" relative="1" as="geometry">
            <mxPoint x="210" y="240" as="sourcePoint" />
            <mxPoint x="290" y="240" as="targetPoint" />
            <Array as="points">
              <mxPoint x="240" y="230" />
              <mxPoint x="240" y="230" />
            </Array>
          </mxGeometry>
        </mxCell>
        <mxCell id="wDMfF3KUNV2mzz2cF4fs-22" value="" style="endArrow=classic;html=1;rounded=0;edgeStyle=orthogonalEdgeStyle;strokeColor=#00b0f0;fontSize=15;jumpStyle=arc;fontFamily=Times New Roman;fontStyle=1" parent="1" source="wDMfF3KUNV2mzz2cF4fs-9" target="wDMfF3KUNV2mzz2cF4fs-3" edge="1">
          <mxGeometry width="50" height="50" relative="1" as="geometry">
            <mxPoint x="250" y="270" as="sourcePoint" />
            <mxPoint x="330" y="270" as="targetPoint" />
            <Array as="points">
              <mxPoint x="490" y="250" />
            </Array>
          </mxGeometry>
        </mxCell>
        <mxCell id="wDMfF3KUNV2mzz2cF4fs-23" value="" style="endArrow=classic;html=1;rounded=0;edgeStyle=orthogonalEdgeStyle;strokeColor=#00b0f0;fontSize=15;jumpStyle=arc;fontFamily=Times New Roman;fontStyle=1" parent="1" source="wDMfF3KUNV2mzz2cF4fs-3" target="wDMfF3KUNV2mzz2cF4fs-9" edge="1">
          <mxGeometry width="50" height="50" relative="1" as="geometry">
            <mxPoint x="500" y="105" as="sourcePoint" />
            <mxPoint x="210" y="260" as="targetPoint" />
            <Array as="points">
              <mxPoint x="510" y="270" />
            </Array>
          </mxGeometry>
        </mxCell>
      </root>
    </mxGraphModel>
  </diagram>
  <diagram id="vUp1oOa5d2yNnSiKeDlT" name="4.4">
    <mxGraphModel dx="1050" dy="671" grid="1" gridSize="10" guides="1" tooltips="1" connect="0" arrows="0" fold="1" page="0" pageScale="1" pageWidth="850" pageHeight="1100" math="0" shadow="0">
      <root>
        <mxCell id="0" />
        <mxCell id="1" parent="0" />
        <mxCell id="nwXy11QjqLXuRvnafyem-1" value="4.4.1&#xa;&#xa;THIẾP LẬP LỊCH LÀM VIỆC" style="swimlane;fontStyle=1;childLayout=stackLayout;horizontal=1;startSize=20;fillColor=#bac8d3;horizontalStack=0;resizeParent=1;resizeParentMax=0;resizeLast=0;collapsible=0;marginBottom=0;swimlaneFillColor=#bac8d3;fontSize=12;whiteSpace=wrap;gradientColor=none;rounded=1;glass=0;verticalAlign=top;spacing=-1;fontFamily=Times New Roman;" parent="1" vertex="1">
          <mxGeometry x="480" y="320" width="120" height="80" as="geometry" />
        </mxCell>
        <mxCell id="nwXy11QjqLXuRvnafyem-2" value="&amp;nbsp;NHÂN VIÊN QUẢN LÝ" style="html=1;dashed=0;whiteSpace=wrap;fontStyle=1;fillColor=#f5f5f5;fontColor=#333333;strokeColor=#4472C4;strokeWidth=2;fontFamily=Times New Roman;fontSize=15;" parent="1" vertex="1">
          <mxGeometry x="160" y="560" width="160" height="80" as="geometry" />
        </mxCell>
        <mxCell id="nwXy11QjqLXuRvnafyem-3" value="17&lt;span style=&quot;white-space: pre;&quot;&gt;&#x9;&lt;/span&gt;Danh sách lịch làm việc" style="html=1;dashed=0;whiteSpace=wrap;shape=mxgraph.dfd.dataStoreID;align=left;spacingLeft=8;points=[[0,0],[0.5,0],[1,0],[0,0.5],[1,0.5],[0,1],[0.5,1],[1,1]];fontSize=12;verticalAlign=middle;fillColor=#dae8fc;fontStyle=1;labelBackgroundColor=none;fontFamily=Times New Roman;strokeColor=#6c8ebf;" parent="1" vertex="1">
          <mxGeometry x="720" y="585" width="180" height="30" as="geometry" />
        </mxCell>
        <mxCell id="nwXy11QjqLXuRvnafyem-4" value="" style="endArrow=classic;html=1;rounded=0;edgeStyle=orthogonalEdgeStyle;strokeColor=#4472C4;fontSize=15;jumpStyle=arc;fontFamily=Times New Roman;fontStyle=1;" parent="1" source="nwXy11QjqLXuRvnafyem-2" target="nwXy11QjqLXuRvnafyem-1" edge="1">
          <mxGeometry width="50" height="50" relative="1" as="geometry">
            <mxPoint x="180" y="420" as="sourcePoint" />
            <mxPoint x="400" y="490" as="targetPoint" />
            <Array as="points">
              <mxPoint x="240" y="380" />
            </Array>
          </mxGeometry>
        </mxCell>
        <mxCell id="nwXy11QjqLXuRvnafyem-5" value="Thông tin lịch làm việc của nhân viên" style="text;html=1;align=center;verticalAlign=middle;resizable=0;points=[];autosize=1;strokeColor=none;fillColor=none;fontSize=12;fontStyle=1" parent="1" vertex="1">
          <mxGeometry x="225" y="335" width="240" height="30" as="geometry" />
        </mxCell>
        <mxCell id="nwXy11QjqLXuRvnafyem-6" value="" style="endArrow=classic;html=1;rounded=0;edgeStyle=orthogonalEdgeStyle;strokeColor=#00b0f0;fontSize=15;jumpStyle=arc;fontFamily=Times New Roman;fontStyle=1" parent="1" source="nwXy11QjqLXuRvnafyem-1" target="nwXy11QjqLXuRvnafyem-3" edge="1">
          <mxGeometry width="50" height="50" relative="1" as="geometry">
            <mxPoint x="719" y="535" as="sourcePoint" />
            <mxPoint x="719" y="435" as="targetPoint" />
            <Array as="points">
              <mxPoint x="820" y="350" />
            </Array>
          </mxGeometry>
        </mxCell>
        <mxCell id="nwXy11QjqLXuRvnafyem-7" value="4.4.2&#xa;&#xa;CHỈNH SỦA LỊCH LÀM VIỆC" style="swimlane;fontStyle=1;childLayout=stackLayout;horizontal=1;startSize=20;fillColor=#bac8d3;horizontalStack=0;resizeParent=1;resizeParentMax=0;resizeLast=0;collapsible=0;marginBottom=0;swimlaneFillColor=#bac8d3;fontSize=12;whiteSpace=wrap;gradientColor=none;rounded=1;glass=0;verticalAlign=top;spacing=-1;fontFamily=Times New Roman;" parent="1" vertex="1">
          <mxGeometry x="480" y="480" width="120" height="80" as="geometry" />
        </mxCell>
        <mxCell id="nwXy11QjqLXuRvnafyem-8" value="4.4.4&#xa;&#xa;XEM LỊCH LÀM VIỆC" style="swimlane;fontStyle=1;childLayout=stackLayout;horizontal=1;startSize=20;fillColor=#bac8d3;horizontalStack=0;resizeParent=1;resizeParentMax=0;resizeLast=0;collapsible=0;marginBottom=0;swimlaneFillColor=#bac8d3;fontSize=12;whiteSpace=wrap;gradientColor=none;rounded=1;glass=0;verticalAlign=top;spacing=-1;fontFamily=Times New Roman;" parent="1" vertex="1">
          <mxGeometry x="480" y="800" width="120" height="80" as="geometry" />
        </mxCell>
        <mxCell id="nwXy11QjqLXuRvnafyem-9" value="4.4.3&#xa;&#xa; XÓA LỊCH LÀM VIỆC" style="swimlane;fontStyle=1;childLayout=stackLayout;horizontal=1;startSize=20;fillColor=#bac8d3;horizontalStack=0;resizeParent=1;resizeParentMax=0;resizeLast=0;collapsible=0;marginBottom=0;swimlaneFillColor=#bac8d3;fontSize=12;whiteSpace=wrap;gradientColor=none;rounded=1;glass=0;verticalAlign=top;spacing=-1;fontFamily=Times New Roman;" parent="1" vertex="1">
          <mxGeometry x="480" y="640" width="120" height="80" as="geometry" />
        </mxCell>
        <mxCell id="nwXy11QjqLXuRvnafyem-10" value="" style="endArrow=classic;html=1;rounded=0;edgeStyle=orthogonalEdgeStyle;strokeColor=#4472C4;fontSize=15;jumpStyle=arc;fontFamily=Times New Roman;fontStyle=1;" parent="1" source="nwXy11QjqLXuRvnafyem-2" target="nwXy11QjqLXuRvnafyem-1" edge="1">
          <mxGeometry width="50" height="50" relative="1" as="geometry">
            <mxPoint x="190" y="520" as="sourcePoint" />
            <mxPoint x="410" y="340" as="targetPoint" />
            <Array as="points">
              <mxPoint x="220" y="360" />
            </Array>
          </mxGeometry>
        </mxCell>
        <mxCell id="nwXy11QjqLXuRvnafyem-11" value="" style="endArrow=classic;html=1;rounded=0;edgeStyle=orthogonalEdgeStyle;strokeColor=#4472C4;fontSize=15;jumpStyle=arc;fontFamily=Times New Roman;fontStyle=1;" parent="1" source="nwXy11QjqLXuRvnafyem-1" target="nwXy11QjqLXuRvnafyem-2" edge="1">
          <mxGeometry width="50" height="50" relative="1" as="geometry">
            <mxPoint x="470" y="340" as="sourcePoint" />
            <mxPoint x="230" y="540" as="targetPoint" />
            <Array as="points">
              <mxPoint x="200" y="340" />
            </Array>
          </mxGeometry>
        </mxCell>
        <mxCell id="nwXy11QjqLXuRvnafyem-12" value="Thông tin tra cứu nhân viên" style="text;html=1;align=center;verticalAlign=middle;resizable=0;points=[];autosize=1;strokeColor=none;fillColor=none;fontSize=12;fontStyle=1" parent="1" vertex="1">
          <mxGeometry x="261" y="355" width="180" height="30" as="geometry" />
        </mxCell>
        <mxCell id="nwXy11QjqLXuRvnafyem-13" value="Kết quả tra cứu nhân viên" style="text;html=1;align=center;verticalAlign=middle;resizable=0;points=[];autosize=1;strokeColor=none;fillColor=none;fontSize=12;fontStyle=1" parent="1" vertex="1">
          <mxGeometry x="259" y="315" width="170" height="30" as="geometry" />
        </mxCell>
        <mxCell id="nwXy11QjqLXuRvnafyem-14" value="" style="endArrow=classic;html=1;rounded=0;edgeStyle=orthogonalEdgeStyle;strokeColor=#4472C4;fontSize=15;jumpStyle=arc;fontFamily=Times New Roman;fontStyle=1;" parent="1" source="nwXy11QjqLXuRvnafyem-7" target="nwXy11QjqLXuRvnafyem-2" edge="1">
          <mxGeometry width="50" height="50" relative="1" as="geometry">
            <mxPoint x="520" y="460" as="sourcePoint" />
            <mxPoint x="300" y="640" as="targetPoint" />
            <Array as="points">
              <mxPoint x="540" y="590" />
            </Array>
          </mxGeometry>
        </mxCell>
        <mxCell id="nwXy11QjqLXuRvnafyem-15" value="" style="endArrow=classic;html=1;rounded=0;edgeStyle=orthogonalEdgeStyle;strokeColor=#4472C4;fontSize=15;jumpStyle=arc;fontFamily=Times New Roman;fontStyle=1;" parent="1" source="nwXy11QjqLXuRvnafyem-2" target="nwXy11QjqLXuRvnafyem-7" edge="1">
          <mxGeometry width="50" height="50" relative="1" as="geometry">
            <mxPoint x="280" y="540" as="sourcePoint" />
            <mxPoint x="460" y="500" as="targetPoint" />
            <Array as="points">
              <mxPoint x="280" y="530" />
            </Array>
          </mxGeometry>
        </mxCell>
        <mxCell id="nwXy11QjqLXuRvnafyem-16" value="" style="endArrow=classic;html=1;rounded=0;edgeStyle=orthogonalEdgeStyle;strokeColor=#4472C4;fontSize=15;jumpStyle=arc;fontFamily=Times New Roman;fontStyle=1;" parent="1" source="nwXy11QjqLXuRvnafyem-2" target="nwXy11QjqLXuRvnafyem-7" edge="1">
          <mxGeometry width="50" height="50" relative="1" as="geometry">
            <mxPoint x="290" y="570" as="sourcePoint" />
            <mxPoint x="490" y="510" as="targetPoint" />
            <Array as="points">
              <mxPoint x="260" y="510" />
            </Array>
          </mxGeometry>
        </mxCell>
        <mxCell id="nwXy11QjqLXuRvnafyem-17" value="" style="endArrow=classic;html=1;rounded=0;edgeStyle=orthogonalEdgeStyle;strokeColor=#4472C4;fontSize=15;jumpStyle=arc;fontFamily=Times New Roman;fontStyle=1;" parent="1" source="nwXy11QjqLXuRvnafyem-9" target="nwXy11QjqLXuRvnafyem-2" edge="1">
          <mxGeometry width="50" height="50" relative="1" as="geometry">
            <mxPoint x="540" y="580" as="sourcePoint" />
            <mxPoint x="330" y="610" as="targetPoint" />
            <Array as="points">
              <mxPoint x="540" y="610" />
            </Array>
          </mxGeometry>
        </mxCell>
        <mxCell id="nwXy11QjqLXuRvnafyem-18" value="Thông tin tra cứu nhân viên" style="text;html=1;align=center;verticalAlign=middle;resizable=0;points=[];autosize=1;strokeColor=none;fillColor=none;fontSize=12;fontStyle=1" parent="1" vertex="1">
          <mxGeometry x="280" y="505" width="180" height="30" as="geometry" />
        </mxCell>
        <mxCell id="nwXy11QjqLXuRvnafyem-19" value="Kết quả tra cứu nhân viên" style="text;html=1;align=center;verticalAlign=middle;resizable=0;points=[];autosize=1;strokeColor=none;fillColor=none;fontSize=12;fontStyle=1" parent="1" vertex="1">
          <mxGeometry x="340" y="565" width="170" height="30" as="geometry" />
        </mxCell>
        <mxCell id="nwXy11QjqLXuRvnafyem-20" value="Thông tin lịch làm việc mới của nhân viên" style="text;html=1;align=center;verticalAlign=middle;resizable=0;points=[];autosize=1;strokeColor=none;fillColor=none;fontSize=12;fontStyle=1" parent="1" vertex="1">
          <mxGeometry x="225" y="485" width="260" height="30" as="geometry" />
        </mxCell>
        <mxCell id="nwXy11QjqLXuRvnafyem-21" value="Kết quả tra cứu nhân viên" style="text;html=1;align=center;verticalAlign=middle;resizable=0;points=[];autosize=1;strokeColor=none;fillColor=none;fontSize=12;fontStyle=1" parent="1" vertex="1">
          <mxGeometry x="340" y="585" width="170" height="30" as="geometry" />
        </mxCell>
        <mxCell id="nwXy11QjqLXuRvnafyem-22" value="" style="endArrow=classic;html=1;rounded=0;edgeStyle=orthogonalEdgeStyle;strokeColor=#4472C4;fontSize=15;jumpStyle=arc;fontFamily=Times New Roman;fontStyle=1;" parent="1" source="nwXy11QjqLXuRvnafyem-2" target="nwXy11QjqLXuRvnafyem-9" edge="1">
          <mxGeometry width="50" height="50" relative="1" as="geometry">
            <mxPoint x="280" y="630" as="sourcePoint" />
            <mxPoint x="480" y="670" as="targetPoint" />
            <Array as="points">
              <mxPoint x="280" y="670" />
            </Array>
          </mxGeometry>
        </mxCell>
        <mxCell id="nwXy11QjqLXuRvnafyem-23" value="" style="endArrow=classic;html=1;rounded=0;edgeStyle=orthogonalEdgeStyle;strokeColor=#4472C4;fontSize=15;jumpStyle=arc;fontFamily=Times New Roman;fontStyle=1;" parent="1" source="nwXy11QjqLXuRvnafyem-2" target="nwXy11QjqLXuRvnafyem-9" edge="1">
          <mxGeometry width="50" height="50" relative="1" as="geometry">
            <mxPoint x="290" y="640" as="sourcePoint" />
            <mxPoint x="490" y="680" as="targetPoint" />
            <Array as="points">
              <mxPoint x="260" y="690" />
            </Array>
          </mxGeometry>
        </mxCell>
        <mxCell id="nwXy11QjqLXuRvnafyem-24" value="Danh sách sau khi xóa" style="text;html=1;align=center;verticalAlign=middle;resizable=0;points=[];autosize=1;strokeColor=none;fillColor=none;fontSize=12;fontStyle=1" parent="1" vertex="1">
          <mxGeometry x="297" y="665" width="150" height="30" as="geometry" />
        </mxCell>
        <mxCell id="nwXy11QjqLXuRvnafyem-26" value="Thông tin tra cứu nhân viên" style="text;html=1;align=center;verticalAlign=middle;resizable=0;points=[];autosize=1;strokeColor=none;fillColor=none;fontSize=12;fontStyle=1" parent="1" vertex="1">
          <mxGeometry x="285" y="645" width="180" height="30" as="geometry" />
        </mxCell>
        <mxCell id="nwXy11QjqLXuRvnafyem-27" value="" style="endArrow=classic;html=1;rounded=0;edgeStyle=orthogonalEdgeStyle;strokeColor=#4472C4;fontSize=15;jumpStyle=arc;fontFamily=Times New Roman;fontStyle=1;" parent="1" source="nwXy11QjqLXuRvnafyem-2" target="nwXy11QjqLXuRvnafyem-8" edge="1">
          <mxGeometry width="50" height="50" relative="1" as="geometry">
            <mxPoint x="225" y="675" as="sourcePoint" />
            <mxPoint x="445" y="725" as="targetPoint" />
            <Array as="points">
              <mxPoint x="220" y="830" />
            </Array>
          </mxGeometry>
        </mxCell>
        <mxCell id="nwXy11QjqLXuRvnafyem-28" value="" style="endArrow=classic;html=1;rounded=0;edgeStyle=orthogonalEdgeStyle;strokeColor=#4472C4;fontSize=15;jumpStyle=arc;fontFamily=Times New Roman;fontStyle=1;" parent="1" source="nwXy11QjqLXuRvnafyem-8" target="nwXy11QjqLXuRvnafyem-2" edge="1">
          <mxGeometry width="50" height="50" relative="1" as="geometry">
            <mxPoint x="490" y="840" as="sourcePoint" />
            <mxPoint x="230" y="650" as="targetPoint" />
            <Array as="points">
              <mxPoint x="200" y="850" />
            </Array>
          </mxGeometry>
        </mxCell>
        <mxCell id="nwXy11QjqLXuRvnafyem-29" value="Kết quả tra cứu nhân viên" style="text;html=1;align=center;verticalAlign=middle;resizable=0;points=[];autosize=1;strokeColor=none;fillColor=none;fontSize=12;fontStyle=1" parent="1" vertex="1">
          <mxGeometry x="250" y="825" width="170" height="30" as="geometry" />
        </mxCell>
        <mxCell id="nwXy11QjqLXuRvnafyem-30" value="Thông tin tra cứu nhân viên" style="text;html=1;align=center;verticalAlign=middle;resizable=0;points=[];autosize=1;strokeColor=none;fillColor=none;fontSize=12;fontStyle=1" parent="1" vertex="1">
          <mxGeometry x="245" y="805" width="180" height="30" as="geometry" />
        </mxCell>
        <mxCell id="nwXy11QjqLXuRvnafyem-31" value="" style="endArrow=classic;html=1;rounded=0;edgeStyle=orthogonalEdgeStyle;strokeColor=#00b0f0;fontSize=15;jumpStyle=arc;fontFamily=Times New Roman;fontStyle=1" parent="1" source="nwXy11QjqLXuRvnafyem-3" target="nwXy11QjqLXuRvnafyem-1" edge="1">
          <mxGeometry width="50" height="50" relative="1" as="geometry">
            <mxPoint x="820" y="595" as="sourcePoint" />
            <mxPoint x="610" y="370" as="targetPoint" />
            <Array as="points">
              <mxPoint x="800" y="370" />
            </Array>
          </mxGeometry>
        </mxCell>
        <mxCell id="nwXy11QjqLXuRvnafyem-32" value="" style="endArrow=classic;html=1;rounded=0;edgeStyle=orthogonalEdgeStyle;strokeColor=#00b0f0;fontSize=15;jumpStyle=arc;fontFamily=Times New Roman;fontStyle=1" parent="1" source="nwXy11QjqLXuRvnafyem-3" target="nwXy11QjqLXuRvnafyem-7" edge="1">
          <mxGeometry width="50" height="50" relative="1" as="geometry">
            <mxPoint x="830" y="730" as="sourcePoint" />
            <mxPoint x="630" y="515" as="targetPoint" />
            <Array as="points">
              <mxPoint x="780" y="510" />
            </Array>
          </mxGeometry>
        </mxCell>
        <mxCell id="nwXy11QjqLXuRvnafyem-33" value="" style="endArrow=classic;html=1;rounded=0;edgeStyle=orthogonalEdgeStyle;strokeColor=#00b0f0;fontSize=15;jumpStyle=arc;fontFamily=Times New Roman;fontStyle=1" parent="1" source="nwXy11QjqLXuRvnafyem-7" target="nwXy11QjqLXuRvnafyem-3" edge="1">
          <mxGeometry width="50" height="50" relative="1" as="geometry">
            <mxPoint x="610" y="520" as="sourcePoint" />
            <mxPoint x="790" y="595" as="targetPoint" />
            <Array as="points">
              <mxPoint x="760" y="530" />
            </Array>
          </mxGeometry>
        </mxCell>
        <mxCell id="nwXy11QjqLXuRvnafyem-34" value="" style="endArrow=classic;html=1;rounded=0;edgeStyle=orthogonalEdgeStyle;strokeColor=#00b0f0;fontSize=15;jumpStyle=arc;fontFamily=Times New Roman;fontStyle=1" parent="1" source="nwXy11QjqLXuRvnafyem-9" target="nwXy11QjqLXuRvnafyem-3" edge="1">
          <mxGeometry width="50" height="50" relative="1" as="geometry">
            <mxPoint x="630" y="652.5" as="sourcePoint" />
            <mxPoint x="790" y="707.5" as="targetPoint" />
            <Array as="points">
              <mxPoint x="760" y="670" />
            </Array>
          </mxGeometry>
        </mxCell>
        <mxCell id="nwXy11QjqLXuRvnafyem-35" value="" style="endArrow=classic;html=1;rounded=0;edgeStyle=orthogonalEdgeStyle;strokeColor=#00b0f0;fontSize=15;jumpStyle=arc;fontFamily=Times New Roman;fontStyle=1" parent="1" source="nwXy11QjqLXuRvnafyem-3" target="nwXy11QjqLXuRvnafyem-9" edge="1">
          <mxGeometry width="50" height="50" relative="1" as="geometry">
            <mxPoint x="770" y="625" as="sourcePoint" />
            <mxPoint x="610" y="680" as="targetPoint" />
            <Array as="points">
              <mxPoint x="780" y="690" />
            </Array>
          </mxGeometry>
        </mxCell>
        <mxCell id="nwXy11QjqLXuRvnafyem-36" value="" style="endArrow=classic;html=1;rounded=0;edgeStyle=orthogonalEdgeStyle;strokeColor=#00b0f0;fontSize=15;jumpStyle=arc;fontFamily=Times New Roman;fontStyle=1" parent="1" source="nwXy11QjqLXuRvnafyem-3" target="nwXy11QjqLXuRvnafyem-8" edge="1">
          <mxGeometry width="50" height="50" relative="1" as="geometry">
            <mxPoint x="800" y="640" as="sourcePoint" />
            <mxPoint x="620" y="715" as="targetPoint" />
            <Array as="points">
              <mxPoint x="800" y="830" />
            </Array>
          </mxGeometry>
        </mxCell>
        <mxCell id="nwXy11QjqLXuRvnafyem-37" value="" style="endArrow=classic;html=1;rounded=0;edgeStyle=orthogonalEdgeStyle;strokeColor=#00b0f0;fontSize=15;jumpStyle=arc;fontFamily=Times New Roman;fontStyle=1" parent="1" source="nwXy11QjqLXuRvnafyem-8" target="nwXy11QjqLXuRvnafyem-3" edge="1">
          <mxGeometry width="50" height="50" relative="1" as="geometry">
            <mxPoint x="610" y="840" as="sourcePoint" />
            <mxPoint x="810" y="625" as="targetPoint" />
            <Array as="points">
              <mxPoint x="820" y="850" />
            </Array>
          </mxGeometry>
        </mxCell>
      </root>
    </mxGraphModel>
  </diagram>
</mxfile>
